<?xml version="1.0" standalone="no"?><!DOCTYPE svg PUBLIC "-//W3C//DTD SVG 1.1//EN" "http://www.w3.org/Graphics/SVG/1.1/DTD/svg11.dtd"><svg t="1528688226570" class="icon" style="" viewBox="0 0 1024 1024" version="1.1" xmlns="http://www.w3.org/2000/svg" p-id="6126" xmlns:xlink="http://www.w3.org/1999/xlink" width="64" height="64"><defs><style type="text/css"></style></defs><path d="M811.084 578.703L531.642 996.204a29.483 29.483 0 0 1-24.557 13.148h-0.002c-9.818 0-19.041-4.927-24.557-13.127L203.219 579.804c-34.029-54.436-51.751-116.094-51.751-179.049 0-189.898 159.406-344.416 355.359-344.416 195.927 0 355.359 154.508 355.359 344.416 0 62.864-17.669 124.398-51.088 177.949zM506.829 115.917c-163.293 0-296.128 127.782-296.128 284.842 0 51.751 14.606 102.412 42.17 146.556l254.208 378.977 254.4-380.022c26.976-43.239 41.484-93.845 41.484-145.498 0-157.055-132.853-284.842-296.117-284.842z m0 447.346c-92.846 0-168.368-73.486-168.368-163.827 0-90.292 75.523-163.791 168.368-163.791 92.846 0 168.359 73.474 168.359 163.791 0 90.315-75.506 163.827-168.359 163.827z m0-268.044c-60.212 0-109.156 46.774-109.156 104.239 0 57.471 48.953 104.239 109.156 104.239 60.195 0 109.143-46.766 109.143-104.239 0-57.461-48.953-104.239-109.143-104.239z" fill="#515151" p-id="6127"></path></svg>