<svg xmlns="http://www.w3.org/2000/svg" viewBox="0 0 26.1 26.1"><defs><style>.cls-1{fill:#ccc;}</style></defs><title>放大镜_搜索框</title><g id="图层_2" data-name="图层 2"><g id="图层_1-2" data-name="图层 1"><path class="cls-1" d="M19,15.9l-.27.48,7.34,7.41L23.79,26.1l-7.34-7.41L16,19a10.5,10.5,0,0,1-5.64,1.7A9.9,9.9,0,0,1,3,17.67a10.07,10.07,0,0,1-3-7.34A10,10,0,0,1,3,3a10,10,0,0,1,7.31-3,10,10,0,0,1,7.31,3,10,10,0,0,1,3,7.31A10.24,10.24,0,0,1,19,15.9ZM16.11,4.55a7.87,7.87,0,0,0-5.78-2.38A7.86,7.86,0,0,0,4.55,4.55a7.86,7.86,0,0,0-2.38,5.78,7.86,7.86,0,0,0,2.38,5.78,7.86,7.86,0,0,0,5.78,2.38,7.86,7.86,0,0,0,5.78-2.38,7.9,7.9,0,0,0,2.45-5.78A7.9,7.9,0,0,0,16.11,4.55Z"/></g></g></svg>